<?xml version="1.0" encoding="UTF-8"?>
<svg width="28px" height="28px" viewBox="0 0 28 28" version="1.1" xmlns="http://www.w3.org/2000/svg" xmlns:xlink="http://www.w3.org/1999/xlink">
    <!-- Generator: Sketch 43.2 (39069) - http://www.bohemiancoding.com/sketch -->
    <title>Group</title>
    <desc>Created with Sketch.</desc>
    <defs></defs>
    <g id="Page-1" stroke="none" stroke-width="1" fill="none" fill-rule="evenodd">
        <g id="Group" fill="#D8D8D8">
            <path d="M14,28 C6.2680135,28 0,21.7319865 0,14 C0,6.2680135 6.2680135,0 14,0 C21.7319865,0 28,6.2680135 28,14 C28,21.7319865 21.7319865,28 14,28 Z M22,16 C22,15.3020798 21.7825543,14.6809923 21.3476562,14.1367188 C20.9127582,13.5924452 20.3567742,13.2395841 19.6796875,13.078125 C19.8932302,12.7552067 20,12.3958353 20,12 C20,11.4479139 19.8046895,10.9765645 19.4140625,10.5859375 C19.0234355,10.1953105 18.5520861,10 18,10 C17.5052059,10 17.0729185,10.1614567 16.703125,10.484375 C16.3958318,9.73437125 15.9049513,9.13281477 15.2304688,8.6796875 C14.5559862,8.22656023 13.8125041,8 13,8 C11.8958278,8 10.9531289,8.39062109 10.171875,9.171875 C9.39062109,9.95312891 9,10.8958278 9,12 C9,12.0677087 9.00520828,12.1796867 9.015625,12.3359375 C8.40103859,12.6223973 7.91146016,13.0520805 7.546875,13.625 C7.18228984,14.1979195 7,14.8229133 7,15.5 C7,16.4635465 7.34244449,17.287757 8.02734375,17.9726562 C8.71224301,18.6575555 9.53645352,19 10.5,19 L19,19 C19.8281291,19 20.5351533,18.7070342 21.1210938,18.1210938 C21.7070342,17.5351533 22,16.8281291 22,16 Z" id="Combined-Shape"></path>
            <path d="M17,14.25 C17,14.177083 16.9765627,14.1171877 16.9296875,14.0703125 C16.8828123,14.0234373 16.822917,14 16.75,14 L15,14 L15,11.25 C15,11.1822913 14.9752607,11.1236982 14.9257812,11.0742188 C14.8763018,11.0247393 14.8177087,11 14.75,11 L13.25,11 C13.1822913,11 13.1236982,11.0247393 13.0742188,11.0742188 C13.0247393,11.1236982 13,11.1822913 13,11.25 L13,14 L11.25,14 C11.1822913,14 11.1236982,14.0247393 11.0742188,14.0742188 C11.0247393,14.1236982 11,14.1822913 11,14.25 C11,14.322917 11.0234373,14.3828123 11.0703125,14.4296875 L13.8203125,17.1796875 C13.8671877,17.2265627 13.927083,17.25 14,17.25 C14.072917,17.25 14.1328123,17.2265627 14.1796875,17.1796875 L16.921875,14.4375 C16.9739586,14.3749997 17,14.3125003 17,14.25 Z" id="Path"></path>
        </g>
    </g>
</svg>