<?xml version="1.0" encoding="UTF-8"?>
<svg width="28px" height="28px" viewBox="0 0 28 28" version="1.1" xmlns="http://www.w3.org/2000/svg" xmlns:xlink="http://www.w3.org/1999/xlink">
    <!-- Generator: Sketch 43.2 (39069) - http://www.bohemiancoding.com/sketch -->
    <title>Combined Shape</title>
    <desc>Created with Sketch.</desc>
    <defs></defs>
    <g id="Page-1" stroke="none" stroke-width="1" fill="none" fill-rule="evenodd">
        <path d="M13.7556671,27.9978238 C6.02488244,27.8628825 -0.132765184,21.4864517 0.00217616411,13.7556671 C0.137117512,6.02488244 6.51354829,-0.132765184 14.2443329,0.00217616411 C21.9751176,0.137117512 28.1327652,6.51354829 27.9978238,14.2443329 C27.8628825,21.9751176 21.4864517,28.1327652 13.7556671,27.9978238 Z M10.1111233,20.2222027 L10.1111233,10.8888986 L7.00002195,10.8888986 L7.00002195,20.2222027 L10.1111233,20.2222027 Z M8.55557263,9.6444581 C9.56668057,9.6444581 10.4222334,8.78890523 10.4222334,7.77779729 C10.4222334,6.76668935 9.56668057,5.91113648 8.55557263,5.91113648 C7.54446469,5.91113648 6.68891182,6.76668935 6.68891182,7.77779729 C6.68891182,8.78890523 7.54446469,9.6444581 8.55557263,9.6444581 Z M20.999978,20.2222027 L20.999978,14.7777753 C20.999978,12.4444493 20.3777578,10.5777885 17.499989,10.5777885 C16.333326,10.5777885 15.3222181,11.2000088 14.9333304,11.9777841 L14.7777753,11.9777841 L14.7777753,10.8888986 L11.666674,10.8888986 L11.666674,20.2222027 L14.7777753,20.2222027 L14.7777753,15.5555507 C14.7777753,14.3111101 15.0888855,13.0666696 16.333326,13.0666696 C17.5777666,13.0666696 17.8888767,14.3111101 17.8888767,15.5555507 L17.8888767,20.2222027 L20.999978,20.2222027 Z" id="Combined-Shape" fill="#FFFFFF"></path>
    </g>
</svg>