<?xml version="1.0" encoding="UTF-8"?>
<svg width="28px" height="28px" viewBox="0 0 28 28" version="1.1" xmlns="http://www.w3.org/2000/svg" xmlns:xlink="http://www.w3.org/1999/xlink">
    <!-- Generator: Sketch 43.2 (39069) - http://www.bohemiancoding.com/sketch -->
    <title>Group</title>
    <desc>Created with Sketch.</desc>
    <defs></defs>
    <g id="Page-1" stroke="none" stroke-width="1" fill="none" fill-rule="evenodd">
        <g id="Group" fill="#FFFFFF">
            <path d="M14,28 C6.2680135,28 0,21.7319865 0,14 C0,6.2680135 6.2680135,0 14,0 C21.7319865,0 28,6.2680135 28,14 C28,21.7319865 21.7319865,28 14,28 Z M20,10.5 C20,10.2053557 19.8939743,9.95312605 19.6819196,9.74330357 C19.469865,9.53348109 19.2187515,9.42857143 18.9285714,9.42857143 L9.07142857,9.42857143 C8.72767685,9.42857143 8.46317057,9.5446417 8.27790179,9.77678571 C8.092633,10.0089297 8,10.2991054 8,10.6473214 C8,10.9285728 8.12276663,11.2332573 8.36830357,11.5613839 C8.61384051,11.8895106 8.87499862,12.1473205 9.15178571,12.3348214 C9.30357219,12.4419648 9.7611569,12.760042 10.5245536,13.2890625 C11.2879502,13.818083 11.8727658,14.225445 12.2790179,14.5111607 C12.3236609,14.5424109 12.4185261,14.6104905 12.5636161,14.7154018 C12.7087061,14.820313 12.8292406,14.9051336 12.9252232,14.9698661 C13.0212058,15.0345985 13.1372761,15.1071425 13.2734375,15.1875 C13.4095989,15.2678575 13.5379458,15.3281248 13.6584821,15.3683036 C13.7790185,15.4084823 13.8906245,15.4285714 13.9933036,15.4285714 L14.0066964,15.4285714 C14.1093755,15.4285714 14.2209815,15.4084823 14.3415179,15.3683036 C14.4620542,15.3281248 14.5904011,15.2678575 14.7265625,15.1875 C14.8627239,15.1071425 14.9787942,15.0345985 15.0747768,14.9698661 C15.1707594,14.9051336 15.2912939,14.820313 15.4363839,14.7154018 C15.5814739,14.6104905 15.6763391,14.5424109 15.7209821,14.5111607 C16.1316985,14.225445 17.1763309,13.5000058 18.8549107,12.3348214 C19.1808052,12.1071417 19.4531239,11.8325909 19.671875,11.5111607 C19.8906261,11.1897305 20,10.8526803 20,10.5 Z M20,12.46875 C19.8080348,12.6830368 19.5848227,12.8772313 19.3303571,13.0513393 C17.8660641,14.0424157 16.7544681,14.8124973 15.9955357,15.3616071 C15.7410702,15.5491081 15.534599,15.695312 15.3761161,15.8002232 C15.2176331,15.9051345 15.0066977,16.0122762 14.7433036,16.1216518 C14.4799094,16.2310273 14.2343761,16.2857143 14.0066964,16.2857143 L13.9933036,16.2857143 C13.7656239,16.2857143 13.5200906,16.2310273 13.2566964,16.1216518 C12.9933023,16.0122762 12.7823669,15.9051345 12.6238839,15.8002232 C12.465401,15.695312 12.2589298,15.5491081 12.0044643,15.3616071 C11.4017827,14.9196406 10.2924188,14.1495591 8.67633929,13.0513393 C8.42187373,12.8816956 8.19642955,12.6875011 8,12.46875 L8,17.7857143 C8,18.0803586 8.10490967,18.3325882 8.31473214,18.5424107 C8.52455462,18.7522332 8.77678424,18.8571429 9.07142857,18.8571429 L18.9285714,18.8571429 C19.2232158,18.8571429 19.4754454,18.7522332 19.6852679,18.5424107 C19.8950903,18.3325882 20,18.0803586 20,17.7857143 L20,12.46875 Z" id="Combined-Shape"></path>
        </g>
    </g>
</svg>